
<svg xmlns="http://www.w3.org/2000/svg" version="1.1" xmlns:xlink="http://www.w3.org/1999/xlink" preserveAspectRatio="none" x="0px" y="0px" width="200px" height="200px" viewBox="0 0 200 200">
<defs>
<filter id="Filter_1" x="-20%" y="-26.06425702811245%" width="140%" height="152.1285140562249%" color-interpolation-filters="sRGB" >
<feFlood flood-color="rgba(0,0,0,0.5)" flood-opacity="1" in="SourceGraphic" result="result1" />

<feComposite in2="SourceGraphic" in="result1" operator="in" result="result2"/>

<feGaussianBlur in="result2" stdDeviation="2.6666666666666665,2.6666666666666665" result="result3"/>

<feOffset dx="0" dy="0" in="result3" result="result4"/>

<feComposite in2="result4" in="SourceGraphic" operator="over" result="result5"/>
</filter>

<g id="bq1_0_Layer0_0_FILL">
<path fill="#FFFFFF" stroke="none" d="
M 64.85 75.1
L 64.85 85.1 84.9 85.1 84.9 114.9 55.1 114.9 55.1 75.1 45.1 75.1 45.1 124.9 94.9 124.9 94.9 75.1 64.85 75.1
M 75 95.35
L 65 95.35 65 105.35 75 105.35 75 95.35
M 115.1 85.1
L 144.9 85.1 144.9 124.9 154.9 124.9 154.9 75.1 105.1 75.1 105.1 124.9 135.15 124.9 135.15 114.9 115.1 114.9 115.1 85.1
M 135 94.65
L 125 94.65 125 104.65 135 104.65 135 94.65 Z"/>
</g>
</defs>

<g filter="url(#Filter_1)" transform="matrix( 1, 0, 0, 1, 0,0) ">
<g transform="matrix( 1, 0, 0, 1, 45.1,75.1) " >
<g transform="matrix( 1, 0, 0, 1, -45.1,-75.1) " >
<use xlink:href="#bq1_0_Layer0_0_FILL"/>
</g>
</g>
</g>
</svg>
