<svg xmlns="http://www.w3.org/2000/svg" version="1.1" xmlns:xlink="http://www.w3.org/1999/xlink" preserveAspectRatio="none" x="0px" y="0px" width="200px" height="200px" viewBox="0 0 200 200" id="logo">
<path fill="#000" stroke="none" d="
M 55.1 75.1
L 45.1 75.1 45.1 124.9 94.9 124.9 94.9 75.1 64.85 75.1 64.85 85.1 84.9 85.1 84.9 114.9 55.1 114.9 55.1 75.1
M 75 95.35
L 65 95.35 65 105.35 75 105.35 75 95.35
M 154.9 75.1
L 105.1 75.1 105.1 124.9 135.15 124.9 135.15 114.9 115.1 114.9 115.1 85.1 144.9 85.1 144.9 124.9 154.9 124.9 154.9 75.1
M 135 94.65
L 125 94.65 125 104.65 135 104.65 135 94.65 Z"/>
</svg>