
<svg xmlns="http://www.w3.org/2000/svg" version="1.1" xmlns:xlink="http://www.w3.org/1999/xlink" preserveAspectRatio="none" x="0px" y="0px" width="130px" height="70px" viewBox="0 0 130 70">
<defs>
<g id="Layer0_0_FILL">
<path fill="#0066CC" stroke="none" d="
M 30 10
L 30 20 50 20 50 50 30 50 20 50 20 10 10 10 10 60 60 60 60 10 30 10
M 40 30
L 30 30 30 40 40 40 40 30
M 100 60
L 100 50 80 50 80 20 110 20 110 60 120 60 120 10 70 10 70 60 100 60
M 100 30
L 90 30 90 40 100 40 100 30 Z"/>
</g>
</defs>

<g transform="matrix( 1, 0, 0, 1, 0,0) ">
<use xlink:href="#Layer0_0_FILL"/>
</g>
</svg>
